<?xml version="1.0" standalone="no"?>
<!DOCTYPE svg PUBLIC "-//W3C//DTD SVG 20010904//EN"
 "http://www.w3.org/TR/2001/REC-SVG-20010904/DTD/svg10.dtd">
<svg version="1.0" xmlns="http://www.w3.org/2000/svg"
 width="1024.000000pt" height="1024.000000pt" viewBox="0 0 1024.000000 1024.000000"
 preserveAspectRatio="xMidYMid meet">
<metadata>
Created by potrace 1.14, written by Peter Selinger 2001-2017
</metadata>
<g transform="translate(0.000000,1024.000000) scale(0.100000,-0.100000)"
fill="#000000" stroke="none">
<path d="M0 5078 l0 -5078 2236 0 2236 0 -5 473 c-4 428 -6 481 -25 567 -58
267 -150 451 -301 601 -93 91 -178 143 -331 202 -874 336 -1304 1051 -1250
2078 7 130 322 3230 345 3396 5 37 4 42 -17 49 -47 14 -319 144 -439 209 -517
281 -908 572 -1325 989 -439 440 -747 861 -1030 1409 l-94 182 0 -5077z"/>
<path d="M10176 10033 c-560 -1130 -1520 -2067 -2655 -2593 -80 -37 -156 -71
-169 -74 -21 -7 -22 -12 -17 -49 21 -154 338 -3273 344 -3397 15 -267 -9 -548
-65 -771 -157 -628 -550 -1062 -1184 -1306 -153 -59 -238 -111 -331 -202 -151
-150 -243 -334 -301 -601 -19 -86 -21 -139 -25 -567 l-5 -473 2236 0 2236 0 0
5075 c0 2791 -1 5075 -3 5075 -1 0 -29 -53 -61 -117z"/>
<path d="M3880 7032 c0 -4 -57 -552 -127 -1217 -126 -1201 -127 -1212 -127
-1460 -1 -275 8 -341 66 -502 115 -319 380 -491 891 -578 l37 -6 0 1831 c0
1457 -3 1830 -12 1830 -73 1 -444 55 -612 90 -110 23 -116 23 -116 12z"/>
<path d="M6265 7024 c-137 -31 -559 -93 -632 -94 -10 0 -13 -373 -13 -1830 l0
-1831 38 6 c510 87 775 259 890 578 58 161 67 227 66 502 0 248 -1 259 -127
1459 -70 666 -127 1214 -127 1218 0 11 -22 9 -95 -8z"/>
</g>
</svg>
