
  <svg xmlns="http://www.w3.org/2000/svg" viewBox="0 0 199.23 134.95">
    <defs>
      <style>
        .cover { fill: #9747ff; }
        .pages { fill: #ffffff; }
        .edges { fill: #000000; }
        .logo-text {
          font-family: 'Apple Color Emoji', 'Segoe UI Emoji', 'Noto Color Emoji', 'Android Emoji', 'EmojiSymbols', sans-serif;
          font-weight: normal;
          fill: #000000;
        }
      </style>
    </defs>
    <g>
      <path class="pages" d="M100.82,99.33L20.68,60.1c-3.5-1.71-7.58.83-7.58,4.73v9.23c0,2.32,1.32,4.44,3.41,5.46l84.31,41.27c1.69.83,3.66.83,5.35,0l84.32-41.28c.16-.08.33-.14.49-.21v-21.5l-84.81,41.52c-1.69.83-3.66.83-5.35,0Z"/>
      <path class="edges" d="M195.83,79.51c-1.53-.75-3.28-.81-4.85-.21-.17.06-.33.13-.49.21l-84.32,41.28c-1.69.83-3.66.83-5.35,0L16.51,79.52c-2.08-1.02-3.41-3.14-3.41-5.46v-9.23c0-3.89,4.08-6.44,7.58-4.73l80.13,39.23c1.69.83,3.66.83,5.35,0l84.81-41.52,4.85-2.38c4.54-2.22,4.54-8.7,0-10.92L106.16.62c-1.69-.83-3.66-.83-5.35,0L3.41,48.31c-2.08,1.02-3.41,3.14-3.41,5.46v27.42c0,2.32,1.32,4.44,3.41,5.46l97.41,47.69c1.69.83,3.66.83,5.35,0l89.66-43.89c4.54-2.22,4.54-8.7,0-10.92Z"/>
    </g>
    <path class="cover" d="M101.18,85.65L32.47,51.41c-2.31-1.15-2.31-4.44,0-5.59L101.42,11.57c1.47-.73,3.21-.73,4.68,0l68.71,34.24c2.31,1.15,2.31,4.44,0,5.59l-68.95,34.25c-1.47.73-3.21.73-4.68,0Z"/>
    <g>
        <!-- Apply matrix transformation after centering the character -->
        <g transform="matrix(0.85, 0.45, -1, 0.55, 102, 48)">
          <!-- First center the character at origin -->
          <g transform="translate(-35.525, 24.71)">
            <path d="M45.29 0L70 0L62.37-5.88L62.37-44.24L69.86-50.26L52.57-50.26L35.14-14.56L17.92-50.26L1.12-50.26L8.19-44.45L8.19-5.53L1.05 0L19.81 0L12.53-5.67L12.53-40.11L32.41 0.84L34.93-4.27L36.75-8.19L52.57-41.16L52.57-5.60Z"/>
          </g>
        </g>
      </g>
  </svg>
  