<?xml version="1.0" standalone="no"?>
<!DOCTYPE svg PUBLIC "-//W3C//DTD SVG 20010904//EN"
 "http://www.w3.org/TR/2001/REC-SVG-20010904/DTD/svg10.dtd">
<svg version="1.0" xmlns="http://www.w3.org/2000/svg"
 width="1024.000000pt" height="1024.000000pt" viewBox="0 0 1024.000000 1024.000000"
 preserveAspectRatio="xMidYMid meet">
<metadata>
Created by potrace 1.14, written by Peter Selinger 2001-2017
</metadata>
<g transform="translate(0.000000,1024.000000) scale(0.100000,-0.100000)"
fill="#000000" stroke="none">
<path d="M0 5079 l0 -5079 2231 0 2230 0 -4 498 c-3 428 -6 507 -21 572 -88
378 -278 629 -565 746 -215 88 -287 121 -381 175 -443 253 -739 646 -864 1148
-56 222 -82 490 -72 726 5 114 328 3307 350 3461 4 29 2 31 -62 59 -125 53
-476 234 -612 315 -274 165 -558 368 -790 566 -156 132 -493 471 -622 624
-293 348 -520 688 -725 1087 l-93 182 0 -5080z"/>
<path d="M10167 10020 c-191 -388 -448 -777 -745 -1130 -129 -153 -466 -492
-622 -624 -232 -198 -516 -401 -790 -566 -136 -81 -487 -262 -612 -315 -64
-28 -66 -30 -62 -59 3 -17 82 -771 176 -1676 166 -1605 171 -1651 171 -1875 1
-245 -9 -353 -49 -550 -113 -544 -416 -966 -884 -1234 -94 -54 -166 -87 -381
-175 -111 -45 -190 -97 -269 -176 -143 -143 -240 -328 -296 -570 -15 -65 -18
-144 -21 -572 l-4 -498 2230 0 2231 0 0 5080 c0 2794 -1 5080 -2 5079 -2 0
-34 -63 -71 -139z"/>
<path d="M3880 7022 c0 -10 -57 -562 -127 -1227 -125 -1187 -127 -1214 -127
-1445 0 -261 15 -365 74 -519 114 -295 388 -472 843 -546 l77 -12 0 1828 0
1828 -42 5 c-24 3 -86 11 -138 17 -128 14 -314 44 -434 69 -120 24 -126 25
-126 2z"/>
<path d="M6255 7024 c-86 -19 -343 -61 -455 -74 -52 -6 -114 -13 -137 -16
l-43 -5 0 -1828 0 -1828 78 12 c454 74 728 251 842 546 59 154 74 258 74 519
0 231 -2 258 -127 1445 -70 665 -127 1217 -127 1227 0 21 -19 22 -105 2z"/>
</g>
</svg>
